<?xml version="1.0" encoding="UTF-8"?>
<svg id="Livello_1" data-name="Livello 1" xmlns="http://www.w3.org/2000/svg" viewBox="0 0 2100 1000">
  <defs>
    <style>
      .cls-1 {
        fill: #191919;
      }
    </style>
  </defs>
  <path class="cls-1" d="m453.01,391.84c48.52-.65,137.71-95.7,218.63-88.7,80.92,7,74.69,88.7,74.69,88.7,0,0-7.11,52.64-74.69,59.91-51.85,5.58-73.41-36.09-120.09-41.53-46.68-5.45-86.87,22.08-92.31,50.09-5.45,28.01,16.65,43.29,21.11,44.97,32.32,12.21,71.88-.7,100.14,4.6,25.85,4.85,42.92,31.66,33.72,62.89-6.44,21.85-41.6,42.23-72.59,25.66-28.51-15.24-18.79-44.13-52.78-67.89-29.54-20.65-48.5-4.04-48.5-4.04,0,0-26.27,19.7,3.54,72.25,29.81,52.54-8.18,90.84-35.87,97-26.96,6-91.29-3.93-89.93-71.74.97-48.02,61.8-81.95,84.57-119.84,23.72-39.46,39.9-77.08,10.41-98.67-24.41-17.86-41.95,33.61-79.82,25.77-44.07-9.13-38.76-54.76-20.71-69.72,19.92-16.51,47.54-19.85,65.73-7.22,18.19,12.63,37.91,38.02,74.76,37.52Z"/>
  <path class="cls-1" d="m895.06,401.16h161.61v40.69h-116.83v69.42h110.48v39.94h-110.48v120.55h-44.79v-270.59Z"/>
  <path class="cls-1" d="m1079.88,401.16h42.55v270.59h-42.55v-270.59Z"/>
  <path class="cls-1" d="m1158.03,598.23v-112.71h42.55v110.84c0,25.75,14.93,42.93,39.94,42.93s40.31-17.17,40.31-42.93v-110.84h42.18v112.71c0,49.27-32.47,79.5-82.48,79.5s-82.48-30.23-82.48-79.5Z"/>
  <path class="cls-1" d="m1352.32,436.25c0-15.31,11.2-25.75,26.88-25.75s26.87,10.45,26.87,25.75-11.2,25.38-26.87,25.38-26.88-10.46-26.88-25.38Zm5.6,49.27h42.55v186.24h-42.55v-186.24Z"/>
  <path class="cls-1" d="m1427.23,578.45c0-55.62,32.1-97.79,83.98-97.79,25.38,0,46.28,10.82,59.34,34.34l2.61-.75c-1.49-15.31-1.49-25.75-1.49-42.17v-70.91h42.55v270.59h-41.8c0-10.82,0-19.4.74-29.85l-2.61-.37c-13.44,23.14-34.71,34.34-61.21,34.34-50.01,0-82.11-42.93-82.11-97.42Zm145.93,0c0-35.08-20.53-59.34-52.63-59.34-31.72.37-51.13,25.75-51.13,59.72s19.41,59.34,51.13,59.34,52.63-25.01,52.63-59.72Z"/>
  <path class="cls-1" d="m1643.7,615.95c0-38.45,29.31-61.59,66.89-61.59,17.28,0,34.19,5.97,45.84,18.28l2.26-.37v-18.66c0-22.02-11.27-38.45-31.94-38.45-15.03,0-27.43,7.1-36.08,19.03l-30.82-21.27c16.54-22.77,42.46-33.59,71.02-33.59,43.59,0,69.89,28.37,69.89,73.16v119.06h-41.33c0-7.46,0-14.93.37-22.02l-2.63-.75c-10.52,17.54-29.69,26.88-51.11,26.88-35.32,0-62.38-23.51-62.38-59.72Zm113.11-4.11c.38-19.03-15.41-30.6-35.32-30.6s-34.94,12.32-34.94,30.97,14.28,30.97,34.57,30.97,35.7-11.57,35.7-31.35Z"/>
</svg>